<svg width="152" height="54" viewBox="0 0 152 54" fill="none" xmlns="http://www.w3.org/2000/svg">
<g clip-path="url(#clip0_102_240)">
<path d="M21.2319 0C21.1284 0.259259 21.0719 0.555556 20.9119 0.787037C16.978 6.46296 13.0347 12.1296 9.08191 17.8056C9.04426 17.8519 8.95956 17.8704 8.90309 17.9074C8.81839 18.0648 8.7431 18.2407 8.63958 18.3889C6.41851 21.8148 6.6632 25.0185 9.36425 28.1481C10.2866 29.2222 11.19 30.3056 12.1029 31.3889C13.4205 32.9259 14.7381 34.463 16.0745 36.0185C18.5873 32.6482 18.512 29.25 15.9145 26.1481C13.5899 23.3796 11.2371 20.6481 8.89368 17.8981C10.663 17.8889 12.4323 17.8981 14.1922 17.8796C16.1498 17.8611 17.6744 18.6481 18.8414 20.1667C20.2531 21.9907 21.6836 23.8056 23.1047 25.6296C25.5611 28.7963 25.6834 31.8519 23.453 35.1574C20.0931 40.1574 16.6862 45.1296 13.3829 50.1574C12.2253 51.9259 10.9265 53.3982 8.80898 53.9907H3.83981C3.98098 53.6667 4.07509 53.3241 4.27273 53.037C7.91491 47.7963 11.5665 42.5556 15.2181 37.3148C15.4534 36.9722 15.6698 36.6111 16.0086 36.0833C14.164 36.0833 12.5547 36.0463 10.9548 36.0926C8.90309 36.1574 7.3314 35.3241 6.13617 33.7315C5.71266 33.1667 5.2421 32.6389 4.828 32.0648C3.08691 29.6111 0.705848 27.5463 0 24.4444V22.2222C0.922308 20.5093 1.72227 18.7315 2.77633 17.1111C5.62796 12.7315 8.63017 8.4537 11.4912 4.07407C12.6958 2.23148 14.004 0.601852 16.2533 0H21.2319Z" fill="#54EECC"/>
<path d="M9.64772 26.4075C9.6289 25.0463 10.6359 23.9908 11.9911 23.963C13.4122 23.926 14.5322 24.9537 14.5604 26.3334C14.5887 27.6297 13.3652 28.8612 12.0664 28.8426C10.7488 28.8241 9.66654 27.7408 9.64772 26.4075Z" fill="#54EECC"/>
</g>
<path d="M39.415 39.1135V36.087C39.7614 36.3927 40.1741 36.6678 40.6531 36.9124C41.1422 37.1569 41.6517 37.3658 42.1816 37.5391C42.7217 37.7021 43.2618 37.8295 43.8018 37.9212C44.3419 38.0129 44.8412 38.0588 45.2998 38.0588C46.8793 38.0588 48.0563 37.7683 48.8307 37.1875C49.6154 36.5965 50.0077 35.7507 50.0077 34.6501C50.0077 34.0591 49.8752 33.5445 49.6103 33.1063C49.3555 32.6681 48.9989 32.2707 48.5403 31.9141C48.0817 31.5472 47.5366 31.2007 46.9048 30.8747C46.2832 30.5384 45.6106 30.1868 44.8871 29.82C44.1228 29.4327 43.4095 29.0404 42.7472 28.643C42.0848 28.2456 41.509 27.8074 41.0199 27.3285C40.5308 26.8495 40.1436 26.3094 39.8582 25.7082C39.5831 25.0968 39.4455 24.3835 39.4455 23.5683C39.4455 22.5696 39.6646 21.7035 40.1028 20.9698C40.541 20.2259 41.1167 19.6145 41.83 19.1355C42.5434 18.6566 43.3535 18.2999 44.2604 18.0656C45.1775 17.8312 46.1099 17.714 47.0576 17.714C49.2179 17.714 50.7923 17.9738 51.7808 18.4935V21.3825C50.4866 20.4857 48.8256 20.0374 46.7978 20.0374C46.2373 20.0374 45.6768 20.0985 45.1164 20.2208C44.5559 20.3329 44.0566 20.5214 43.6184 20.7863C43.1802 21.0513 42.8236 21.3927 42.5484 21.8105C42.2733 22.2283 42.1357 22.7378 42.1357 23.339C42.1357 23.8995 42.2376 24.3835 42.4414 24.7911C42.6554 25.1987 42.9662 25.5707 43.3739 25.9069C43.7815 26.2432 44.2757 26.5693 44.8565 26.8852C45.4476 27.2011 46.1252 27.5476 46.8895 27.9246C47.6741 28.3118 48.418 28.7194 49.1211 29.1474C49.8243 29.5754 50.4408 30.0493 50.9707 30.569C51.5006 31.0887 51.9184 31.6644 52.2241 32.2962C52.54 32.928 52.6979 33.6515 52.6979 34.4667C52.6979 35.5469 52.4839 36.464 52.0559 37.2181C51.6381 37.962 51.0675 38.5683 50.344 39.037C49.6306 39.5058 48.8052 39.8421 47.8677 40.0459C46.9302 40.2599 45.9418 40.3668 44.9024 40.3668C44.5559 40.3668 44.1279 40.3363 43.6184 40.2751C43.1089 40.2242 42.5892 40.1427 42.0593 40.0306C41.5294 39.9287 41.025 39.8013 40.5461 39.6484C40.0773 39.4854 39.7003 39.3071 39.415 39.1135ZM69.3895 40H66.8827V37.5238H66.8215C65.7821 39.4192 64.1721 40.3668 61.9914 40.3668C58.2618 40.3668 56.397 38.1454 56.397 33.7024V24.3478H58.8885V33.305C58.8885 36.6067 60.152 38.2575 62.6792 38.2575C63.902 38.2575 64.9058 37.8091 65.6904 36.9124C66.4853 36.0054 66.8827 34.8234 66.8827 33.3662V24.3478H69.3895V40ZM87.4567 40H84.9499V31.0734C84.9499 27.7514 83.7373 26.0904 81.312 26.0904C80.0586 26.0904 79.0192 26.5642 78.1938 27.5119C77.3786 28.4494 76.971 29.6365 76.971 31.0734V40H74.4642V24.3478H76.971V26.9463H77.0321C78.2142 24.9694 79.9262 23.981 82.168 23.981C83.88 23.981 85.1894 24.5363 86.0963 25.6471C87.0033 26.7476 87.4567 28.3424 87.4567 30.4314V40ZM114.42 40H111.913V31.0122C111.913 29.2799 111.643 28.0265 111.103 27.252C110.573 26.4776 109.677 26.0904 108.413 26.0904C107.343 26.0904 106.431 26.5795 105.677 27.5577C104.933 28.536 104.561 29.7079 104.561 31.0734V40H102.054V30.7065C102.054 27.6291 100.867 26.0904 98.4927 26.0904C97.3922 26.0904 96.4853 26.554 95.772 27.4813C95.0586 28.3984 94.702 29.5958 94.702 31.0734V40H92.1952V24.3478H94.702V26.824H94.7631C95.8739 24.9287 97.4941 23.981 99.6239 23.981C100.694 23.981 101.626 24.2816 102.421 24.8828C103.216 25.4738 103.761 26.2534 104.057 27.2215C105.218 25.0611 106.951 23.981 109.254 23.981C112.698 23.981 114.42 26.1056 114.42 30.355V40ZM131.738 32.8006H120.687C120.728 34.5431 121.197 35.8882 122.093 36.8359C122.99 37.7836 124.223 38.2575 125.792 38.2575C127.555 38.2575 129.175 37.6766 130.653 36.5149V38.8689C129.277 39.8675 127.458 40.3668 125.196 40.3668C122.985 40.3668 121.247 39.6586 119.984 38.2422C118.72 36.8156 118.089 34.8132 118.089 32.2351C118.089 29.7996 118.776 27.8176 120.152 26.2891C121.538 24.7503 123.255 23.981 125.303 23.981C127.351 23.981 128.936 24.6433 130.057 25.9681C131.178 27.2928 131.738 29.1321 131.738 31.4861V32.8006ZM129.17 30.676C129.16 29.2289 128.809 28.1029 128.116 27.2979C127.433 26.4929 126.48 26.0904 125.257 26.0904C124.075 26.0904 123.072 26.5132 122.246 27.359C121.421 28.2048 120.911 29.3105 120.718 30.676H129.17ZM148.904 40H146.397V37.3404H146.336C145.174 39.358 143.381 40.3668 140.955 40.3668C138.989 40.3668 137.414 39.6688 136.232 38.2728C135.06 36.8665 134.474 34.9558 134.474 32.5408C134.474 29.9524 135.127 27.8787 136.431 26.3196C137.735 24.7605 139.473 23.981 141.643 23.981C143.793 23.981 145.358 24.8268 146.336 26.5183H146.397V16.8274H148.904V40ZM146.397 32.9229V30.6148C146.397 29.3512 145.979 28.2812 145.144 27.4049C144.308 26.5285 143.248 26.0904 141.964 26.0904C140.436 26.0904 139.233 26.6508 138.357 27.7717C137.481 28.8927 137.042 30.4416 137.042 32.4185C137.042 34.2221 137.46 35.6488 138.296 36.6984C139.142 37.7378 140.273 38.2575 141.689 38.2575C143.085 38.2575 144.216 37.7531 145.082 36.7442C145.959 35.7354 146.397 34.4616 146.397 32.9229Z" fill="white"/>
<defs>
<clipPath id="clip0_102_240">
<rect width="25.0435" height="54" fill="white"/>
</clipPath>
</defs>
</svg>
