<svg width="26" height="54" viewBox="0 0 26 54" fill="none" xmlns="http://www.w3.org/2000/svg">
<g clip-path="url(#clip0_47_265)">
<path d="M21.2319 0C21.1284 0.259259 21.0719 0.555556 20.9119 0.787037C16.978 6.46296 13.0347 12.1296 9.08191 17.8056C9.04426 17.8519 8.95956 17.8704 8.90309 17.9074C8.81839 18.0648 8.7431 18.2407 8.63958 18.3889C6.41851 21.8148 6.6632 25.0185 9.36425 28.1481C10.2866 29.2222 11.19 30.3056 12.1029 31.3889C13.4205 32.9259 14.7381 34.463 16.0745 36.0185C18.5873 32.6482 18.512 29.25 15.9145 26.1481C13.5899 23.3796 11.2371 20.6481 8.89368 17.8981C10.663 17.8889 12.4323 17.8981 14.1922 17.8796C16.1498 17.8611 17.6744 18.6481 18.8414 20.1667C20.2531 21.9907 21.6836 23.8056 23.1047 25.6296C25.5611 28.7963 25.6834 31.8519 23.453 35.1574C20.0931 40.1574 16.6862 45.1296 13.3829 50.1574C12.2253 51.9259 10.9265 53.3982 8.80898 53.9907H3.83981C3.98098 53.6667 4.07509 53.3241 4.27273 53.037C7.91491 47.7963 11.5665 42.5556 15.2181 37.3148C15.4534 36.9722 15.6698 36.6111 16.0086 36.0833C14.164 36.0833 12.5547 36.0463 10.9548 36.0926C8.90309 36.1574 7.3314 35.3241 6.13617 33.7315C5.71266 33.1667 5.2421 32.6389 4.828 32.0648C3.08691 29.6111 0.705848 27.5463 0 24.4444V22.2222C0.922308 20.5093 1.72227 18.7315 2.77633 17.1111C5.62796 12.7315 8.63017 8.4537 11.4912 4.07407C12.6958 2.23148 14.004 0.601852 16.2533 0H21.2319Z" fill="#54EECC"/>
<path d="M9.64772 26.4075C9.6289 25.0463 10.6359 23.9908 11.9911 23.963C13.4122 23.926 14.5322 24.9537 14.5604 26.3334C14.5887 27.6297 13.3652 28.8612 12.0664 28.8426C10.7488 28.8241 9.66654 27.7408 9.64772 26.4075Z" fill="#54EECC"/>
</g>
<defs>
<clipPath id="clip0_47_265">
<rect width="25.0435" height="54" fill="white"/>
</clipPath>
</defs>
</svg>
